<?xml version="1.0" encoding="UTF-8" standalone="no"?>
<!DOCTYPE svg PUBLIC "-//W3C//DTD SVG 1.1//EN"
 "http://www.w3.org/Graphics/SVG/1.1/DTD/svg11.dtd">
<!-- Generated by graphviz version 9.0.0 (20230911.1827)
 -->
<!-- Title: G Pages: 1 -->
<svg width="936pt" height="209pt"
 viewBox="0.00 0.00 936.00 209.00" xmlns="http://www.w3.org/2000/svg" xmlns:xlink="http://www.w3.org/1999/xlink">
<g id="graph0" class="graph" transform="scale(1 1) rotate(0) translate(4 205)">
<title>G</title>
<polygon fill="white" stroke="none" points="-4,4 -4,-205 932,-205 932,4 -4,4"/>
<g id="clust1" class="cluster">
<title>cluster_0</title>
<polygon fill="none" stroke="blue" points="8,-62 8,-139 165.25,-139 165.25,-62 8,-62"/>
<text text-anchor="middle" x="86.62" y="-121.7" font-family="Times,serif" font-size="14.00">Frontend</text>
</g>
<g id="clust2" class="cluster">
<title>cluster_1</title>
<polygon fill="none" stroke="green" points="438.5,-8 438.5,-193 629.5,-193 629.5,-8 438.5,-8"/>
<text text-anchor="middle" x="534" y="-175.7" font-family="Times,serif" font-size="14.00">Backend (Microservices)</text>
</g>
<g id="clust3" class="cluster">
<title>cluster_2</title>
<polygon fill="none" stroke="red" points="720.75,-62 720.75,-139 920,-139 920,-62 720.75,-62"/>
<text text-anchor="middle" x="820.38" y="-121.7" font-family="Times,serif" font-size="14.00">Database</text>
</g>
<!-- F -->
<g id="node1" class="node">
<title>F</title>
<polygon fill="none" stroke="black" points="157.25,-106 16,-106 16,-70 157.25,-70 157.25,-106"/>
<text text-anchor="middle" x="86.62" y="-83.33" font-family="Times,serif" font-size="14.00">React Application</text>
</g>
<!-- API -->
<g id="node6" class="node">
<title>API</title>
<polygon fill="none" stroke="black" points="409.5,-106 302,-106 302,-70 409.5,-70 409.5,-106"/>
<text text-anchor="middle" x="355.75" y="-83.33" font-family="Times,serif" font-size="14.00">API Gateway</text>
</g>
<!-- F&#45;&gt;API -->
<g id="edge1" class="edge">
<title>F&#45;&gt;API</title>
<path fill="none" stroke="black" d="M157.46,-88C198.63,-88 250.35,-88 290.51,-88"/>
<polygon fill="black" stroke="black" points="290.26,-91.5 300.26,-88 290.26,-84.5 290.26,-91.5"/>
<text text-anchor="middle" x="229.62" y="-91.95" font-family="Times,serif" font-size="14.00"> &#160;interacts with</text>
</g>
<!-- UL -->
<g id="node2" class="node">
<title>UL</title>
<polygon fill="none" stroke="black" points="580.88,-160 486.12,-160 486.12,-124 580.88,-124 580.88,-160"/>
<text text-anchor="middle" x="533.5" y="-137.32" font-family="Times,serif" font-size="14.00">User Login</text>
</g>
<!-- DB -->
<g id="node5" class="node">
<title>DB</title>
<polygon fill="none" stroke="black" points="912,-106 728.75,-106 728.75,-70 912,-70 912,-106"/>
<text text-anchor="middle" x="820.38" y="-83.33" font-family="Times,serif" font-size="14.00">MongoDB (Cloud Atlas)</text>
</g>
<!-- UL&#45;&gt;DB -->
<g id="edge5" class="edge">
<title>UL&#45;&gt;DB</title>
<path fill="none" stroke="black" d="M581.22,-133.14C618.05,-126.16 670.76,-116.17 717.24,-107.36"/>
<polygon fill="black" stroke="black" points="717.62,-110.85 726.79,-105.55 716.32,-103.97 717.62,-110.85"/>
<text text-anchor="middle" x="675.12" y="-124.95" font-family="Times,serif" font-size="14.00"> &#160;accesses</text>
</g>
<!-- PD -->
<g id="node3" class="node">
<title>PD</title>
<polygon fill="none" stroke="black" points="598.5,-106 468.5,-106 468.5,-70 598.5,-70 598.5,-106"/>
<text text-anchor="middle" x="533.5" y="-83.33" font-family="Times,serif" font-size="14.00">Product Display</text>
</g>
<!-- PD&#45;&gt;DB -->
<g id="edge6" class="edge">
<title>PD&#45;&gt;DB</title>
<path fill="none" stroke="black" d="M598.79,-88C633.66,-88 677.59,-88 717.05,-88"/>
<polygon fill="black" stroke="black" points="716.8,-91.5 726.8,-88 716.8,-84.5 716.8,-91.5"/>
</g>
<!-- AC -->
<g id="node4" class="node">
<title>AC</title>
<polygon fill="none" stroke="black" points="582.75,-52 484.25,-52 484.25,-16 582.75,-16 582.75,-52"/>
<text text-anchor="middle" x="533.5" y="-29.32" font-family="Times,serif" font-size="14.00">Add to Cart</text>
</g>
<!-- AC&#45;&gt;DB -->
<g id="edge7" class="edge">
<title>AC&#45;&gt;DB</title>
<path fill="none" stroke="black" d="M583.15,-43.22C619.85,-50.18 671.51,-59.97 717.16,-68.62"/>
<polygon fill="black" stroke="black" points="716.36,-72.03 726.83,-70.46 717.66,-65.16 716.36,-72.03"/>
</g>
<!-- API&#45;&gt;UL -->
<g id="edge2" class="edge">
<title>API&#45;&gt;UL</title>
<path fill="none" stroke="black" d="M409.86,-105.88C419.38,-108.98 429.22,-112.13 438.5,-115 450.3,-118.64 462.98,-122.39 475.1,-125.9"/>
<polygon fill="black" stroke="black" points="473.98,-129.22 484.56,-128.62 475.92,-122.49 473.98,-129.22"/>
</g>
<!-- API&#45;&gt;PD -->
<g id="edge3" class="edge">
<title>API&#45;&gt;PD</title>
<path fill="none" stroke="black" d="M409.96,-88C424.67,-88 440.93,-88 456.67,-88"/>
<polygon fill="black" stroke="black" points="456.49,-91.5 466.49,-88 456.49,-84.5 456.49,-91.5"/>
</g>
<!-- API&#45;&gt;AC -->
<g id="edge4" class="edge">
<title>API&#45;&gt;AC</title>
<path fill="none" stroke="black" d="M409.86,-70.12C419.38,-67.02 429.22,-63.87 438.5,-61 449.69,-57.55 461.67,-54 473.21,-50.65"/>
<polygon fill="black" stroke="black" points="473.99,-54.06 482.63,-47.93 472.06,-47.34 473.99,-54.06"/>
</g>
</g>
</svg>
